<mxfile host="app.diagrams.net" modified="2024-01-20T02:09:38.931Z" agent="Mozilla/5.0 (Windows NT 10.0; Win64; x64) AppleWebKit/537.36 (KHTML, like Gecko) Chrome/120.0.0.0 Safari/537.36" version="22.1.21" etag="ozcEgp3FZV-Y2dk0DYl7" type="github">
  <diagram name="Page-1" id="xTnifNAJkoMhtvxp3t1Y">
    <mxGraphModel>
      <root>
        <mxCell id="0" />
        <mxCell id="1" parent="0" />
      </root>
    </mxGraphModel>
  </diagram>
</mxfile>
